<svg xmlns="http://www.w3.org/2000/svg" width="558" height="384" viewBox="0 0 558 384" fill="none">
  <path d="M-141.5 -49V-35.5M-141.5 -35.5V-22M-141.5 -35.5H-155M-141.5 -35.5L-128 -35.5M-141.5 21V34.5M-141.5 34.5V48M-141.5 34.5H-155M-141.5 34.5H-128M-141.5 91V104.5M-141.5 104.5V118M-141.5 104.5H-155M-141.5 104.5H-128M-141.5 161V174.5M-141.5 174.5V188M-141.5 174.5H-155M-141.5 174.5H-128M-141.5 231V244.5M-141.5 244.5V258M-141.5 244.5H-155M-141.5 244.5H-128M-141.5 301V314.5M-141.5 314.5V328M-141.5 314.5H-155M-141.5 314.5H-128M-141.5 371V384.5M-141.5 384.5V398M-141.5 384.5H-155M-141.5 384.5H-128M-141.5 -14V-0.5M-141.5 -0.5V13M-141.5 -0.5H-155M-141.5 -0.5H-128M-141.5 56V69.5M-141.5 69.5V83M-141.5 69.5H-155M-141.5 69.5H-128M-141.5 126V139.5M-141.5 139.5V153M-141.5 139.5H-155M-141.5 139.5H-128M-141.5 196V209.5M-141.5 209.5V223M-141.5 209.5H-155M-141.5 209.5H-128M-141.5 266V279.5M-141.5 279.5V293M-141.5 279.5H-155M-141.5 279.5H-128M-141.5 336V349.5M-141.5 349.5V363M-141.5 349.5H-155M-141.5 349.5H-128M-141.5 406V419.5M-141.5 419.5V433M-141.5 419.5H-155M-141.5 419.5H-128M-106.5 -49V-35.5M-106.5 -35.5V-22M-106.5 -35.5H-120M-106.5 -35.5L-93 -35.5M-106.5 21V34.5M-106.5 34.5V48M-106.5 34.5H-120M-106.5 34.5H-93M-106.5 91V104.5M-106.5 104.5V118M-106.5 104.5H-120M-106.5 104.5H-93M-106.5 161V174.5M-106.5 174.5V188M-106.5 174.5H-120M-106.5 174.5H-93M-106.5 231V244.5M-106.5 244.5V258M-106.5 244.5H-120M-106.5 244.5H-93M-106.5 301V314.5M-106.5 314.5V328M-106.5 314.5H-120M-106.5 314.5H-93M-106.5 371V384.5M-106.5 384.5V398M-106.5 384.5H-120M-106.5 384.5H-93M-106.5 -14V-0.5M-106.5 -0.5V13M-106.5 -0.5H-120M-106.5 -0.5H-93M-106.5 56V69.5M-106.5 69.5V83M-106.5 69.5H-120M-106.5 69.5H-93M-106.5 126V139.5M-106.5 139.5V153M-106.5 139.5H-120M-106.5 139.5H-93M-106.5 196V209.5M-106.5 209.5V223M-106.5 209.5H-120M-106.5 209.5H-93M-106.5 266V279.5M-106.5 279.5V293M-106.5 279.5H-120M-106.5 279.5H-93M-106.5 336V349.5M-106.5 349.5V363M-106.5 349.5H-120M-106.5 349.5H-93M-106.5 406V419.5M-106.5 419.5V433M-106.5 419.5H-120M-106.5 419.5H-93M-71.5 -49V-35.5M-71.5 -35.5V-22M-71.5 -35.5H-85M-71.5 -35.5L-58 -35.5M-71.5 21V34.5M-71.5 34.5V48M-71.5 34.5H-85M-71.5 34.5H-58M-71.5 91V104.5M-71.5 104.5V118M-71.5 104.5H-85M-71.5 104.5H-58M-71.5 161V174.5M-71.5 174.5V188M-71.5 174.5H-85M-71.5 174.5H-58M-71.5 231V244.5M-71.5 244.5V258M-71.5 244.5H-85M-71.5 244.5H-58M-71.5 301V314.5M-71.5 314.5V328M-71.5 314.5H-85M-71.5 314.5H-58M-71.5 371V384.5M-71.5 384.5V398M-71.5 384.5H-85M-71.5 384.5H-58M-71.5 -14V-0.5M-71.5 -0.5V13M-71.5 -0.5H-85M-71.5 -0.5H-58M-71.5 56V69.5M-71.5 69.5V83M-71.5 69.5H-85M-71.5 69.5H-58M-71.5 126V139.5M-71.5 139.5V153M-71.5 139.5H-85M-71.5 139.5H-58M-71.5 196V209.5M-71.5 209.5V223M-71.5 209.5H-85M-71.5 209.5H-58M-71.5 266V279.5M-71.5 279.5V293M-71.5 279.5H-85M-71.5 279.5H-58M-71.5 336V349.5M-71.5 349.5V363M-71.5 349.5H-85M-71.5 349.5H-58M-71.5 406V419.5M-71.5 419.5V433M-71.5 419.5H-85M-71.5 419.5H-58M-36.5 -49V-35.5M-36.5 -35.5V-22M-36.5 -35.5H-50M-36.5 -35.5L-23 -35.5M-36.5 21V34.5M-36.5 34.5V48M-36.5 34.5H-50M-36.5 34.5H-23M-36.5 91V104.5M-36.5 104.5V118M-36.5 104.5H-50M-36.5 104.5H-23M-36.5 161V174.5M-36.5 174.5V188M-36.5 174.5H-50M-36.5 174.5H-23M-36.5 231V244.5M-36.5 244.5V258M-36.5 244.5H-50M-36.5 244.5H-23M-36.5 301V314.5M-36.5 314.5V328M-36.5 314.5H-50M-36.5 314.5H-23M-36.5 371V384.5M-36.5 384.5V398M-36.5 384.5H-50M-36.5 384.5H-23M-36.5 -14V-0.5M-36.5 -0.5V13M-36.5 -0.5H-50M-36.5 -0.5H-23M-36.5 56V69.5M-36.5 69.5V83M-36.5 69.5H-50M-36.5 69.5H-23M-36.5 126V139.5M-36.5 139.5V153M-36.5 139.5H-50M-36.5 139.5H-23M-36.5 196V209.5M-36.5 209.5V223M-36.5 209.5H-50M-36.5 209.5H-23M-36.5 266V279.5M-36.5 279.5V293M-36.5 279.5H-50M-36.5 279.5H-23M-36.5 336V349.5M-36.5 349.5V363M-36.5 349.5H-50M-36.5 349.5H-23M-36.5 406V419.5M-36.5 419.5V433M-36.5 419.5H-50M-36.5 419.5H-23M-1.5 -49V-35.5M-1.5 -35.5V-22M-1.5 -35.5H-15M-1.5 -35.5L12 -35.5M-1.5 21V34.5M-1.5 34.5V48M-1.5 34.5H-15M-1.5 34.5H12M-1.5 91V104.5M-1.5 104.5V118M-1.5 104.5H-15M-1.5 104.5H12M-1.5 161V174.5M-1.5 174.5V188M-1.5 174.5H-15M-1.5 174.5H12M-1.5 231V244.5M-1.5 244.5V258M-1.5 244.5H-15M-1.5 244.5H12M-1.5 301V314.5M-1.5 314.5V328M-1.5 314.5H-15M-1.5 314.5H12M-1.5 371V384.5M-1.5 384.5V398M-1.5 384.5H-15M-1.5 384.5H12M-1.5 -14V-0.5M-1.5 -0.5V13M-1.5 -0.5H-15M-1.5 -0.5H12M-1.5 56V69.5M-1.5 69.5V83M-1.5 69.5H-15M-1.5 69.5H12M-1.5 126V139.5M-1.5 139.5V153M-1.5 139.5H-15M-1.5 139.5H12M-1.5 196V209.5M-1.5 209.5V223M-1.5 209.5H-15M-1.5 209.5H12M-1.5 266V279.5M-1.5 279.5V293M-1.5 279.5H-15M-1.5 279.5H12M-1.5 336V349.5M-1.5 349.5V363M-1.5 349.5H-15M-1.5 349.5H12M-1.5 406V419.5M-1.5 419.5V433M-1.5 419.5H-15M-1.5 419.5H12M33.5 -49V-35.5M33.5 -35.5V-22M33.5 -35.5H20M33.5 -35.5L47 -35.5M33.5 21V34.5M33.5 34.5V48M33.5 34.5H20M33.5 34.5H47M33.5 91V104.5M33.5 104.5V118M33.5 104.5H20M33.5 104.5H47M33.5 161V174.5M33.5 174.5V188M33.5 174.5H20M33.5 174.5H47M33.5 231V244.5M33.5 244.5V258M33.5 244.5H20M33.5 244.5H47M33.5 301V314.5M33.5 314.5V328M33.5 314.5H20M33.5 314.5H47M33.5 371V384.5M33.5 384.5V398M33.5 384.5H20M33.5 384.5H47M33.5 -14V-0.5M33.5 -0.5V13M33.5 -0.5H20M33.5 -0.5H47M33.5 56V69.5M33.5 69.5V83M33.5 69.5H20M33.5 69.5H47M33.5 126V139.5M33.5 139.5V153M33.5 139.5H20M33.5 139.5H47M33.5 196V209.5M33.5 209.5V223M33.5 209.5H20M33.5 209.5H47M33.5 266V279.5M33.5 279.5V293M33.5 279.5H20M33.5 279.5H47M33.5 336V349.5M33.5 349.5V363M33.5 349.5H20M33.5 349.5H47M33.5 406V419.5M33.5 419.5V433M33.5 419.5H20M33.5 419.5H47M68.5 -49V-35.5M68.5 -35.5V-22M68.5 -35.5H55M68.5 -35.5L82 -35.5M68.5 21V34.5M68.5 34.5V48M68.5 34.5H55M68.5 34.5H82M68.5 91V104.5M68.5 104.5V118M68.5 104.5H55M68.5 104.5H82M68.5 161V174.5M68.5 174.5V188M68.5 174.5H55M68.5 174.5H82M68.5 231V244.5M68.5 244.5V258M68.5 244.5H55M68.5 244.5H82M68.5 301V314.5M68.5 314.5V328M68.5 314.5H55M68.5 314.5H82M68.5 371V384.5M68.5 384.5V398M68.5 384.5H55M68.5 384.5H82M68.5 -14V-0.5M68.5 -0.5V13M68.5 -0.5H55M68.5 -0.5H82M68.5 56V69.5M68.5 69.5V83M68.5 69.5H55M68.5 69.5H82M68.5 126V139.5M68.5 139.5V153M68.5 139.5H55M68.5 139.5H82M68.5 196V209.5M68.5 209.5V223M68.5 209.5H55M68.5 209.5H82M68.5 266V279.5M68.5 279.5V293M68.5 279.5H55M68.5 279.5H82M68.5 336V349.5M68.5 349.5V363M68.5 349.5H55M68.5 349.5H82M68.5 406V419.5M68.5 419.5V433M68.5 419.5H55M68.5 419.5H82M103.5 -49V-35.5M103.5 -35.5V-22M103.5 -35.5H90M103.5 -35.5L117 -35.5M103.5 21V34.5M103.5 34.5V48M103.5 34.5H90M103.5 34.5H117M103.5 91V104.5M103.5 104.5V118M103.5 104.5H90M103.5 104.5H117M103.5 161V174.5M103.5 174.5V188M103.5 174.5H90M103.5 174.5H117M103.5 231V244.5M103.5 244.5V258M103.5 244.5H90M103.5 244.5H117M103.5 301V314.5M103.5 314.5V328M103.5 314.5H90M103.5 314.5H117M103.5 371V384.5M103.5 384.5V398M103.5 384.5H90M103.5 384.5H117M103.5 -14V-0.5M103.5 -0.5V13M103.5 -0.5H90M103.5 -0.5H117M103.5 56V69.5M103.5 69.5V83M103.5 69.5H90M103.5 69.5H117M103.5 126V139.5M103.5 139.5V153M103.5 139.5H90M103.5 139.5H117M103.5 196V209.5M103.5 209.5V223M103.5 209.5H90M103.5 209.5H117M103.5 266V279.5M103.5 279.5V293M103.5 279.5H90M103.5 279.5H117M103.5 336V349.5M103.5 349.5V363M103.5 349.5H90M103.5 349.5H117M103.5 406V419.5M103.5 419.5V433M103.5 419.5H90M103.5 419.5H117M138.5 -49V-35.5M138.5 -35.5V-22M138.5 -35.5H125M138.5 -35.5L152 -35.5M138.5 21V34.5M138.5 34.5V48M138.5 34.5H125M138.5 34.5H152M138.5 91V104.5M138.5 104.5V118M138.5 104.5H125M138.5 104.5H152M138.5 161V174.5M138.5 174.5V188M138.5 174.5H125M138.5 174.5H152M138.5 231V244.5M138.5 244.5V258M138.5 244.5H125M138.5 244.5H152M138.5 301V314.5M138.5 314.5V328M138.5 314.5H125M138.5 314.5H152M138.5 371V384.5M138.5 384.5V398M138.5 384.5H125M138.5 384.5H152M138.5 -14V-0.5M138.5 -0.5V13M138.5 -0.5H125M138.5 -0.5H152M138.5 56V69.5M138.5 69.5V83M138.5 69.5H125M138.5 69.5H152M138.5 126V139.5M138.5 139.5V153M138.5 139.5H125M138.5 139.5H152M138.5 196V209.5M138.5 209.5V223M138.5 209.5H125M138.5 209.5H152M138.5 266V279.5M138.5 279.5V293M138.5 279.5H125M138.5 279.5H152M138.5 336V349.5M138.5 349.5V363M138.5 349.5H125M138.5 349.5H152M138.5 406V419.5M138.5 419.5V433M138.5 419.5H125M138.5 419.5H152M173.5 -49V-35.5M173.5 -35.5V-22M173.5 -35.5H160M173.5 -35.5L187 -35.5M173.5 21V34.5M173.5 34.5V48M173.5 34.5H160M173.5 34.5H187M173.5 91V104.5M173.5 104.5V118M173.5 104.5H160M173.5 104.5H187M173.5 161V174.5M173.5 174.5V188M173.5 174.5H160M173.5 174.5H187M173.5 231V244.5M173.5 244.5V258M173.5 244.5H160M173.5 244.5H187M173.5 301V314.5M173.5 314.5V328M173.5 314.5H160M173.5 314.5H187M173.5 371V384.5M173.5 384.5V398M173.5 384.5H160M173.5 384.5H187M173.5 -14V-0.5M173.5 -0.5V13M173.5 -0.5H160M173.5 -0.5H187M173.5 56V69.5M173.5 69.5V83M173.5 69.5H160M173.5 69.5H187M173.5 126V139.5M173.5 139.5V153M173.5 139.5H160M173.5 139.5H187M173.5 196V209.5M173.5 209.5V223M173.5 209.5H160M173.5 209.5H187M173.5 266V279.5M173.5 279.5V293M173.5 279.5H160M173.5 279.5H187M173.5 336V349.5M173.5 349.5V363M173.5 349.5H160M173.5 349.5H187M173.5 406V419.5M173.5 419.5V433M173.5 419.5H160M173.5 419.5H187M208.5 -49V-35.5M208.5 -35.5V-22M208.5 -35.5H195M208.5 -35.5L222 -35.5M208.5 21V34.5M208.5 34.5V48M208.5 34.5H195M208.5 34.5H222M208.5 91V104.5M208.5 104.5V118M208.5 104.5H195M208.5 104.5H222M208.5 161V174.5M208.5 174.5V188M208.5 174.5H195M208.5 174.5H222M208.5 231V244.5M208.5 244.5V258M208.5 244.5H195M208.5 244.5H222M208.5 301V314.5M208.5 314.5V328M208.5 314.5H195M208.5 314.5H222M208.5 371V384.5M208.5 384.5V398M208.5 384.5H195M208.5 384.5H222M208.5 -14V-0.5M208.5 -0.5V13M208.5 -0.5H195M208.5 -0.5H222M208.5 56V69.5M208.5 69.5V83M208.5 69.5H195M208.5 69.5H222M208.5 126V139.5M208.5 139.5V153M208.5 139.5H195M208.5 139.5H222M208.5 196V209.5M208.5 209.5V223M208.5 209.5H195M208.5 209.5H222M208.5 266V279.5M208.5 279.5V293M208.5 279.5H195M208.5 279.5H222M208.5 336V349.5M208.5 349.5V363M208.5 349.5H195M208.5 349.5H222M208.5 406V419.5M208.5 419.5V433M208.5 419.5H195M208.5 419.5H222M243.5 -49V-35.5M243.5 -35.5V-22M243.5 -35.5H230M243.5 -35.5L257 -35.5M243.5 21V34.5M243.5 34.5V48M243.5 34.5H230M243.5 34.5H257M243.5 91V104.5M243.5 104.5V118M243.5 104.5H230M243.5 104.5H257M243.5 161V174.5M243.5 174.5V188M243.5 174.5H230M243.5 174.5H257M243.5 231V244.5M243.5 244.5V258M243.5 244.5H230M243.5 244.5H257M243.5 301V314.5M243.5 314.5V328M243.5 314.5H230M243.5 314.5H257M243.5 371V384.5M243.5 384.5V398M243.5 384.5H230M243.5 384.5H257M243.5 -14V-0.5M243.5 -0.5V13M243.5 -0.5H230M243.5 -0.5H257M243.5 56V69.5M243.5 69.5V83M243.5 69.5H230M243.5 69.5H257M243.5 126V139.5M243.5 139.5V153M243.5 139.5H230M243.5 139.5H257M243.5 196V209.5M243.5 209.5V223M243.5 209.5H230M243.5 209.5H257M243.5 266V279.5M243.5 279.5V293M243.5 279.5H230M243.5 279.5H257M243.5 336V349.5M243.5 349.5V363M243.5 349.5H230M243.5 349.5H257M243.5 406V419.5M243.5 419.5V433M243.5 419.5H230M243.5 419.5H257M278.5 -49V-35.5M278.5 -35.5V-22M278.5 -35.5H265M278.5 -35.5L292 -35.5M278.5 21V34.5M278.5 34.5V48M278.5 34.5H265M278.5 34.5H292M278.5 91V104.5M278.5 104.5V118M278.5 104.5H265M278.5 104.5H292M278.5 161V174.5M278.5 174.5V188M278.5 174.5H265M278.5 174.5H292M278.5 231V244.5M278.5 244.5V258M278.5 244.5H265M278.5 244.5H292M278.5 301V314.5M278.5 314.5V328M278.5 314.5H265M278.5 314.5H292M278.5 371V384.5M278.5 384.5V398M278.5 384.5H265M278.5 384.5H292M278.5 -14V-0.5M278.5 -0.5V13M278.5 -0.5H265M278.5 -0.5H292M278.5 56V69.5M278.5 69.5V83M278.5 69.5H265M278.5 69.5H292M278.5 126V139.5M278.5 139.5V153M278.5 139.5H265M278.5 139.5H292M278.5 196V209.5M278.5 209.5V223M278.5 209.5H265M278.5 209.5H292M278.5 266V279.5M278.5 279.5V293M278.5 279.5H265M278.5 279.5H292M278.5 336V349.5M278.5 349.5V363M278.5 349.5H265M278.5 349.5H292M278.5 406V419.5M278.5 419.5V433M278.5 419.5H265M278.5 419.5H292M313.5 -49V-35.5M313.5 -35.5V-22M313.5 -35.5H300M313.5 -35.5L327 -35.5M313.5 21V34.5M313.5 34.5V48M313.5 34.5H300M313.5 34.5H327M313.5 91V104.5M313.5 104.5V118M313.5 104.5H300M313.5 104.5H327M313.5 161V174.5M313.5 174.5V188M313.5 174.5H300M313.5 174.5H327M313.5 231V244.5M313.5 244.5V258M313.5 244.5H300M313.5 244.5H327M313.5 301V314.5M313.5 314.5V328M313.5 314.5H300M313.5 314.5H327M313.5 371V384.5M313.5 384.5V398M313.5 384.5H300M313.5 384.5H327M313.5 -14V-0.5M313.5 -0.5V13M313.5 -0.5H300M313.5 -0.5H327M313.5 56V69.5M313.5 69.5V83M313.5 69.5H300M313.5 69.5H327M313.5 126V139.5M313.5 139.5V153M313.5 139.5H300M313.5 139.5H327M313.5 196V209.5M313.5 209.5V223M313.5 209.5H300M313.5 209.5H327M313.5 266V279.5M313.5 279.5V293M313.5 279.5H300M313.5 279.5H327M313.5 336V349.5M313.5 349.5V363M313.5 349.5H300M313.5 349.5H327M313.5 406V419.5M313.5 419.5V433M313.5 419.5H300M313.5 419.5H327M348.5 -49V-35.5M348.5 -35.5V-22M348.5 -35.5H335M348.5 -35.5L362 -35.5M348.5 21V34.5M348.5 34.5V48M348.5 34.5H335M348.5 34.5H362M348.5 91V104.5M348.5 104.5V118M348.5 104.5H335M348.5 104.5H362M348.5 161V174.5M348.5 174.5V188M348.5 174.5H335M348.5 174.5H362M348.5 231V244.5M348.5 244.5V258M348.5 244.5H335M348.5 244.5H362M348.5 301V314.5M348.5 314.5V328M348.5 314.5H335M348.5 314.5H362M348.5 371V384.5M348.5 384.5V398M348.5 384.5H335M348.5 384.5H362M348.5 -14V-0.5M348.5 -0.5V13M348.5 -0.5H335M348.5 -0.5H362M348.5 56V69.5M348.5 69.5V83M348.5 69.5H335M348.5 69.5H362M348.5 126V139.5M348.5 139.5V153M348.5 139.5H335M348.5 139.5H362M348.5 196V209.5M348.5 209.5V223M348.5 209.5H335M348.5 209.5H362M348.5 266V279.5M348.5 279.5V293M348.5 279.5H335M348.5 279.5H362M348.5 336V349.5M348.5 349.5V363M348.5 349.5H335M348.5 349.5H362M348.5 406V419.5M348.5 419.5V433M348.5 419.5H335M348.5 419.5H362M383.5 -49V-35.5M383.5 -35.5V-22M383.5 -35.5H370M383.5 -35.5L397 -35.5M383.5 21V34.5M383.5 34.5V48M383.5 34.5H370M383.5 34.5H397M383.5 91V104.5M383.5 104.5V118M383.5 104.5H370M383.5 104.5H397M383.5 161V174.5M383.5 174.5V188M383.5 174.5H370M383.5 174.5H397M383.5 231V244.5M383.5 244.5V258M383.5 244.5H370M383.5 244.5H397M383.5 301V314.5M383.5 314.5V328M383.5 314.5H370M383.5 314.5H397M383.5 371V384.5M383.5 384.5V398M383.5 384.5H370M383.5 384.5H397M383.5 -14V-0.5M383.5 -0.5V13M383.5 -0.5H370M383.5 -0.5H397M383.5 56V69.5M383.5 69.5V83M383.5 69.5H370M383.5 69.5H397M383.5 126V139.5M383.5 139.5V153M383.5 139.5H370M383.5 139.5H397M383.5 196V209.5M383.5 209.5V223M383.5 209.5H370M383.5 209.5H397M383.5 266V279.5M383.5 279.5V293M383.5 279.5H370M383.5 279.5H397M383.5 336V349.5M383.5 349.5V363M383.5 349.5H370M383.5 349.5H397M383.5 406V419.5M383.5 419.5V433M383.5 419.5H370M383.5 419.5H397M418.5 -49V-35.5M418.5 -35.5V-22M418.5 -35.5H405M418.5 -35.5L432 -35.5M418.5 21V34.5M418.5 34.5V48M418.5 34.5H405M418.5 34.5H432M418.5 91V104.5M418.5 104.5V118M418.5 104.5H405M418.5 104.5H432M418.5 161V174.5M418.5 174.5V188M418.5 174.5H405M418.5 174.5H432M418.5 231V244.5M418.5 244.5V258M418.5 244.5H405M418.5 244.5H432M418.5 301V314.5M418.5 314.5V328M418.5 314.5H405M418.5 314.5H432M418.5 371V384.5M418.5 384.5V398M418.5 384.5H405M418.5 384.5H432M418.5 -14V-0.5M418.5 -0.5V13M418.5 -0.5H405M418.5 -0.5H432M418.5 56V69.5M418.5 69.5V83M418.5 69.5H405M418.5 69.5H432M418.5 126V139.5M418.5 139.5V153M418.5 139.5H405M418.5 139.5H432M418.5 196V209.5M418.5 209.5V223M418.5 209.5H405M418.5 209.5H432M418.5 266V279.5M418.5 279.5V293M418.5 279.5H405M418.5 279.5H432M418.5 336V349.5M418.5 349.5V363M418.5 349.5H405M418.5 349.5H432M418.5 406V419.5M418.5 419.5V433M418.5 419.5H405M418.5 419.5H432M453.5 -49V-35.5M453.5 -35.5V-22M453.5 -35.5H440M453.5 -35.5L467 -35.5M453.5 21V34.5M453.5 34.5V48M453.5 34.5H440M453.5 34.5H467M453.5 91V104.5M453.5 104.5V118M453.5 104.5H440M453.5 104.5H467M453.5 161V174.5M453.5 174.5V188M453.5 174.5H440M453.5 174.5H467M453.5 231V244.5M453.5 244.5V258M453.5 244.5H440M453.5 244.5H467M453.5 301V314.5M453.5 314.5V328M453.5 314.5H440M453.5 314.5H467M453.5 371V384.5M453.5 384.5V398M453.5 384.5H440M453.5 384.5H467M453.5 -14V-0.5M453.5 -0.5V13M453.5 -0.5H440M453.5 -0.5H467M453.5 56V69.5M453.5 69.5V83M453.5 69.5H440M453.5 69.5H467M453.5 126V139.5M453.5 139.5V153M453.5 139.5H440M453.5 139.5H467M453.5 196V209.5M453.5 209.5V223M453.5 209.5H440M453.5 209.5H467M453.5 266V279.5M453.5 279.5V293M453.5 279.5H440M453.5 279.5H467M453.5 336V349.5M453.5 349.5V363M453.5 349.5H440M453.5 349.5H467M453.5 406V419.5M453.5 419.5V433M453.5 419.5H440M453.5 419.5H467M488.5 -49V-35.5M488.5 -35.5V-22M488.5 -35.5H475M488.5 -35.5L502 -35.5M488.5 21V34.5M488.5 34.5V48M488.5 34.5H475M488.5 34.5H502M488.5 91V104.5M488.5 104.5V118M488.5 104.5H475M488.5 104.5H502M488.5 161V174.5M488.5 174.5V188M488.5 174.5H475M488.5 174.5H502M488.5 231V244.5M488.5 244.5V258M488.5 244.5H475M488.5 244.5H502M488.5 301V314.5M488.5 314.5V328M488.5 314.5H475M488.5 314.5H502M488.5 371V384.5M488.5 384.5V398M488.5 384.5H475M488.5 384.5H502M488.5 -14V-0.5M488.5 -0.5V13M488.5 -0.5H475M488.5 -0.5H502M488.5 56V69.5M488.5 69.5V83M488.5 69.5H475M488.5 69.5H502M488.5 126V139.5M488.5 139.5V153M488.5 139.5H475M488.5 139.5H502M488.5 196V209.5M488.5 209.5V223M488.5 209.5H475M488.5 209.5H502M488.5 266V279.5M488.5 279.5V293M488.5 279.5H475M488.5 279.5H502M488.5 336V349.5M488.5 349.5V363M488.5 349.5H475M488.5 349.5H502M488.5 406V419.5M488.5 419.5V433M488.5 419.5H475M488.5 419.5H502M523.5 -49V-35.5M523.5 -35.5V-22M523.5 -35.5H510M523.5 -35.5L537 -35.5M523.5 21V34.5M523.5 34.5V48M523.5 34.5H510M523.5 34.5H537M523.5 91V104.5M523.5 104.5V118M523.5 104.5H510M523.5 104.5H537M523.5 161V174.5M523.5 174.5V188M523.5 174.5H510M523.5 174.5H537M523.5 231V244.5M523.5 244.5V258M523.5 244.5H510M523.5 244.5H537M523.5 301V314.5M523.5 314.5V328M523.5 314.5H510M523.5 314.5H537M523.5 371V384.5M523.5 384.5V398M523.5 384.5H510M523.5 384.5H537M523.5 -14V-0.5M523.5 -0.5V13M523.5 -0.5H510M523.5 -0.5H537M523.5 56V69.5M523.5 69.5V83M523.5 69.5H510M523.5 69.5H537M523.5 126V139.5M523.5 139.5V153M523.5 139.5H510M523.5 139.5H537M523.5 196V209.5M523.5 209.5V223M523.5 209.5H510M523.5 209.5H537M523.5 266V279.5M523.5 279.5V293M523.5 279.5H510M523.5 279.5H537M523.5 336V349.5M523.5 349.5V363M523.5 349.5H510M523.5 349.5H537M523.5 406V419.5M523.5 419.5V433M523.5 419.5H510M523.5 419.5H537M558.5 -49V-35.5M558.5 -35.5V-22M558.5 -35.5H545M558.5 -35.5L572 -35.5M558.5 21V34.5M558.5 34.5V48M558.5 34.5H545M558.5 34.5H572M558.5 91V104.5M558.5 104.5V118M558.5 104.5H545M558.5 104.5H572M558.5 161V174.5M558.5 174.5V188M558.5 174.5H545M558.5 174.5H572M558.5 231V244.5M558.5 244.5V258M558.5 244.5H545M558.5 244.5H572M558.5 301V314.5M558.5 314.5V328M558.5 314.5H545M558.5 314.5H572M558.5 371V384.5M558.5 384.5V398M558.5 384.5H545M558.5 384.5H572M558.5 -14V-0.5M558.5 -0.5V13M558.5 -0.5H545M558.5 -0.5H572M558.5 56V69.5M558.5 69.5V83M558.5 69.5H545M558.5 69.5H572M558.5 126V139.5M558.5 139.5V153M558.5 139.5H545M558.5 139.5H572M558.5 196V209.5M558.5 209.5V223M558.5 209.5H545M558.5 209.5H572M558.5 266V279.5M558.5 279.5V293M558.5 279.5H545M558.5 279.5H572M558.5 336V349.5M558.5 349.5V363M558.5 349.5H545M558.5 349.5H572M558.5 406V419.5M558.5 419.5V433M558.5 419.5H545M558.5 419.5H572M593.5 -49V-35.5M593.5 -35.5V-22M593.5 -35.5H580M593.5 -35.5L607 -35.5M593.5 21V34.5M593.5 34.5V48M593.5 34.5H580M593.5 34.5H607M593.5 91V104.5M593.5 104.5V118M593.5 104.5H580M593.5 104.5H607M593.5 161V174.5M593.5 174.5V188M593.5 174.5H580M593.5 174.5H607M593.5 231V244.5M593.5 244.5V258M593.5 244.5H580M593.5 244.5H607M593.5 301V314.5M593.5 314.5V328M593.5 314.5H580M593.5 314.5H607M593.5 371V384.5M593.5 384.5V398M593.5 384.5H580M593.5 384.5H607M593.5 -14V-0.5M593.5 -0.5V13M593.5 -0.5H580M593.5 -0.5H607M593.5 56V69.5M593.5 69.5V83M593.5 69.5H580M593.5 69.5H607M593.5 126V139.5M593.5 139.5V153M593.5 139.5H580M593.5 139.5H607M593.5 196V209.5M593.5 209.5V223M593.5 209.5H580M593.5 209.5H607M593.5 266V279.5M593.5 279.5V293M593.5 279.5H580M593.5 279.5H607M593.5 336V349.5M593.5 349.5V363M593.5 349.5H580M593.5 349.5H607M593.5 406V419.5M593.5 419.5V433M593.5 419.5H580M593.5 419.5H607M628.5 -49V-35.5M628.5 -35.5V-22M628.5 -35.5H615M628.5 -35.5L642 -35.5M628.5 21V34.5M628.5 34.5V48M628.5 34.5H615M628.5 34.5H642M628.5 91V104.5M628.5 104.5V118M628.5 104.5H615M628.5 104.5H642M628.5 161V174.5M628.5 174.5V188M628.5 174.5H615M628.5 174.5H642M628.5 231V244.5M628.5 244.5V258M628.5 244.5H615M628.5 244.5H642M628.5 301V314.5M628.5 314.5V328M628.5 314.5H615M628.5 314.5H642M628.5 371V384.5M628.5 384.5V398M628.5 384.5H615M628.5 384.5H642M628.5 -14V-0.5M628.5 -0.5V13M628.5 -0.5H615M628.5 -0.5H642M628.5 56V69.5M628.5 69.5V83M628.5 69.5H615M628.5 69.5H642M628.5 126V139.5M628.5 139.5V153M628.5 139.5H615M628.5 139.5H642M628.5 196V209.5M628.5 209.5V223M628.5 209.5H615M628.5 209.5H642M628.5 266V279.5M628.5 279.5V293M628.5 279.5H615M628.5 279.5H642M628.5 336V349.5M628.5 349.5V363M628.5 349.5H615M628.5 349.5H642M628.5 406V419.5M628.5 419.5V433M628.5 419.5H615M628.5 419.5H642M663.5 -49V-35.5M663.5 -35.5V-22M663.5 -35.5H650M663.5 -35.5L677 -35.5M663.5 21V34.5M663.5 34.5V48M663.5 34.5H650M663.5 34.5H677M663.5 91V104.5M663.5 104.5V118M663.5 104.5H650M663.5 104.5H677M663.5 161V174.5M663.5 174.5V188M663.5 174.5H650M663.5 174.5H677M663.5 231V244.5M663.5 244.5V258M663.5 244.5H650M663.5 244.5H677M663.5 301V314.5M663.5 314.5V328M663.5 314.5H650M663.5 314.5H677M663.5 371V384.5M663.5 384.5V398M663.5 384.5H650M663.5 384.5H677M663.5 -14V-0.5M663.5 -0.5V13M663.5 -0.5H650M663.5 -0.5H677M663.5 56V69.5M663.5 69.5V83M663.5 69.5H650M663.5 69.5H677M663.5 126V139.5M663.5 139.5V153M663.5 139.5H650M663.5 139.5H677M663.5 196V209.5M663.5 209.5V223M663.5 209.5H650M663.5 209.5H677M663.5 266V279.5M663.5 279.5V293M663.5 279.5H650M663.5 279.5H677M663.5 336V349.5M663.5 349.5V363M663.5 349.5H650M663.5 349.5H677M663.5 406V419.5M663.5 419.5V433M663.5 419.5H650M663.5 419.5H677M698.5 -49V-35.5M698.5 -35.5V-22M698.5 -35.5H685M698.5 -35.5L712 -35.5M698.5 21V34.5M698.5 34.5V48M698.5 34.5H685M698.5 34.5H712M698.5 91V104.5M698.5 104.5V118M698.5 104.5H685M698.5 104.5H712M698.5 161V174.5M698.5 174.5V188M698.5 174.5H685M698.5 174.5H712M698.5 231V244.5M698.5 244.5V258M698.5 244.5H685M698.5 244.5H712M698.5 301V314.5M698.5 314.5V328M698.5 314.5H685M698.5 314.5H712M698.5 371V384.5M698.5 384.5V398M698.5 384.5H685M698.5 384.5H712M698.5 -14V-0.5M698.5 -0.5V13M698.5 -0.5H685M698.5 -0.5H712M698.5 56V69.5M698.5 69.5V83M698.5 69.5H685M698.5 69.5H712M698.5 126V139.5M698.5 139.5V153M698.5 139.5H685M698.5 139.5H712M698.5 196V209.5M698.5 209.5V223M698.5 209.5H685M698.5 209.5H712M698.5 266V279.5M698.5 279.5V293M698.5 279.5H685M698.5 279.5H712M698.5 336V349.5M698.5 349.5V363M698.5 349.5H685M698.5 349.5H712M698.5 406V419.5M698.5 419.5V433M698.5 419.5H685M698.5 419.5H712" stroke="url(#paint0_diamond_2760_14349)"/>
  <defs>
    <radialGradient id="paint0_diamond_2760_14349" cx="0" cy="0" r="1" gradientUnits="userSpaceOnUse" gradientTransform="translate(278.5 192) rotate(90) scale(241 433.5)">
      <stop stop-color="#48C9FE" stop-opacity="0.25"/>
      <stop offset="1" stop-color="#48C9FE" stop-opacity="0.05"/>
    </radialGradient>
  </defs>
</svg>